/* XPM */
static char * Untitled_xpm[] = {
"32 32 293 2",
"  	c #FDFEFE",
". 	c #CAE0EB",
"+ 	c #4393B8",
"@ 	c #167AA7",
"# 	c #0B73A3",
"$ 	c #BFDAE7",
"% 	c #127CAA",
"& 	c #3CABCF",
"* 	c #50C2E1",
"= 	c #54C5E4",
"- 	c #53C4E3",
"; 	c #137CAA",
"> 	c #BCD9E6",
", 	c #3F91B6",
"' 	c #3EADD1",
") 	c #52C2E2",
"! 	c #4DBEDF",
"~ 	c #4DBEDE",
"{ 	c #3FAED2",
"] 	c #3C8FB5",
"^ 	c #0F75A4",
"/ 	c #50C1E1",
"( 	c #4CBDDE",
"_ 	c #50C2E2",
": 	c #0E75A4",
"< 	c #50C0E1",
"[ 	c #4BBBDD",
"} 	c #4EBEDF",
"| 	c #4ABADB",
"1 	c #4CBCDD",
"2 	c #48B8DA",
"3 	c #47B8DA",
"4 	c #4ABBDC",
"5 	c #47B7D9",
"6 	c #46B7D9",
"7 	c #43B5D8",
"8 	c #51BADA",
"9 	c #4FBADA",
"0 	c #44B6D8",
"a 	c #0B73A2",
"b 	c #48B9DA",
"c 	c #44B4D6",
"d 	c #45B5D6",
"e 	c #54B9D9",
"f 	c #C0E4F0",
"g 	c #DAEEF5",
"h 	c #D3EBF3",
"i 	c #76C6E0",
"j 	c #45B4D6",
"k 	c #47B6D9",
"l 	c #43B2D5",
"m 	c #41B1D5",
"n 	c #58B9D9",
"o 	c #5ABBDA",
"p 	c #4DB6D7",
"q 	c #42B1D5",
"r 	c #42B2D5",
"s 	c #49B3D5",
"t 	c #BBE1ED",
"u 	c #FFFFFF",
"v 	c #EFF7FA",
"w 	c #A3D4E5",
"x 	c #64BBD8",
"y 	c #4AB4D6",
"z 	c #44B4D7",
"A 	c #41B0D4",
"B 	c #3CADD2",
"C 	c #65BBD9",
"D 	c #F3FAFB",
"E 	c #B5DFED",
"F 	c #77C6E0",
"G 	c #57B9D9",
"H 	c #40AFD3",
"I 	c #3EAFD3",
"J 	c #3DADD3",
"K 	c #84C9E0",
"L 	c #FEFEFE",
"M 	c #B0DCEC",
"N 	c #4EB4D5",
"O 	c #40AFD4",
"P 	c #30A0C8",
"Q 	c #A5D2E3",
"R 	c #FFFFFE",
"S 	c #D0EAF3",
"T 	c #91D0E4",
"U 	c #5AB8D8",
"V 	c #3CACD1",
"W 	c #3DADD2",
"X 	c #45ADD0",
"Y 	c #ECF5F9",
"Z 	c #B7DEEC",
"` 	c #3DABD0",
" .	c #0A73A2",
"..	c #41AFD3",
"+.	c #3EACD1",
"@.	c #35A4CB",
"#.	c #63B3D0",
"$.	c #D4E8F0",
"%.	c #D9EEF5",
"&.	c #32A5CC",
"*.	c #8ECAE0",
"=.	c #70BEDA",
"-.	c #37A8CF",
";.	c #3BAAD0",
">.	c #39AACF",
",.	c #3CABD0",
"'.	c #3EABD0",
").	c #3BA9CE",
"!.	c #34A4CA",
"~.	c #7DC1D9",
"{.	c #FBFCFD",
"].	c #F3F9FC",
"^.	c #9BD0E3",
"/.	c #E7F3F7",
"(.	c #CCE7F0",
"_.	c #39A5CB",
":.	c #4FB1D2",
"<.	c #6ABDD9",
"[.	c #4AAFD1",
"}.	c #3AA8CE",
"|.	c #3CAACF",
"1.	c #39A7CD",
"2.	c #37A5CB",
"3.	c #359DC4",
"4.	c #A0CDDF",
"5.	c #F8FBFD",
"6.	c #FEFEFF",
"7.	c #FBFDFD",
"8.	c #E6F3F8",
"9.	c #C8E5EF",
"0.	c #6DBBD7",
"a.	c #34A3CA",
"b.	c #39A7CC",
"c.	c #0A72A2",
"d.	c #39A8CD",
"e.	c #36A4CA",
"f.	c #319EC6",
"g.	c #3E9EC3",
"h.	c #B3D7E5",
"i.	c #FAFDFD",
"j.	c #DDEDF3",
"k.	c #9CCDE0",
"l.	c #75BCD7",
"m.	c #45AACD",
"n.	c #35A4CA",
"o.	c #38A5CB",
"p.	c #35A2C8",
"q.	c #36A3C8",
"r.	c #33A0C7",
"s.	c #61B2D0",
"t.	c #FDFEFD",
"u.	c #FDFDFE",
"v.	c #BFDDE9",
"w.	c #93C8DC",
"x.	c #53ABCB",
"y.	c #309EC5",
"z.	c #36A3CA",
"A.	c #339FC6",
"B.	c #2A97C1",
"C.	c #469FC3",
"D.	c #A5CFE0",
"E.	c #F3F8FB",
"F.	c #0C82B0",
"G.	c #2191BC",
"H.	c #2C9AC2",
"I.	c #329FC6",
"J.	c #33A1C7",
"K.	c #319EC5",
"L.	c #319DC5",
"M.	c #2F9BC3",
"N.	c #2493BD",
"O.	c #5FACCB",
"P.	c #2795BE",
"Q.	c #2F9CC3",
"R.	c #309DC4",
"S.	c #329DC5",
"T.	c #349EC5",
"U.	c #2B9AC3",
"V.	c #2E9BC4",
"W.	c #2F9CC4",
"X.	c #419FC4",
"Y.	c #B4D7E5",
"Z.	c #F9FCFD",
"`.	c #B5D7E5",
" +	c #208FB9",
".+	c #2E9BC3",
"++	c #2E9CC3",
"@+	c #2C99C1",
"#+	c #56ADCD",
"$+	c #65B4D1",
"%+	c #2897BF",
"&+	c #2094BE",
"*+	c #2495BF",
"=+	c #2194BE",
"-+	c #2294BE",
";+	c #54A9C9",
">+	c #AED4E3",
",+	c #FAFCFD",
"'+	c #C9E1EC",
")+	c #3897BD",
"!+	c #2894BE",
"~+	c #2D9AC2",
"{+	c #2996BF",
"]+	c #3399C0",
"^+	c #85C1D9",
"/+	c #BEDFEC",
"(+	c #9ECFE2",
"_+	c #80C0D8",
":+	c #9ACDE0",
"<+	c #BFDFEB",
"[+	c #E4F2F6",
"}+	c #C4DEEA",
"|+	c #419BBF",
"1+	c #2390BA",
"2+	c #2A96C0",
"3+	c #2B97C0",
"4+	c #2995BE",
"5+	c #2591BB",
"6+	c #278FB9",
"7+	c #77B7D1",
"8+	c #F1F8FA",
"9+	c #97C6DA",
"0+	c #3393BA",
"a+	c #228EB9",
"b+	c #2793BC",
"c+	c #2895BE",
"d+	c #2793BD",
"e+	c #2692BC",
"f+	c #248FBA",
"g+	c #1F89B5",
"h+	c #3190B8",
"i+	c #A6CEDF",
"j+	c #F9FBFD",
"k+	c #FFFEFE",
"l+	c #B7D7E5",
"m+	c #479ABF",
"n+	c #1B86B3",
"o+	c #228EB8",
"p+	c #2691BC",
"q+	c #0A72A1",
"r+	c #2792BD",
"s+	c #2590BB",
"t+	c #238EBA",
"u+	c #208AB6",
"v+	c #1783B1",
"w+	c #1982AF",
"x+	c #62A8C6",
"y+	c #A7CEDF",
"z+	c #C7DFEA",
"A+	c #E2EFF4",
"B+	c #E4EFF5",
"C+	c #CCE2EC",
"D+	c #A8D0E0",
"E+	c #73B2CD",
"F+	c #2A8BB5",
"G+	c #1380AF",
"H+	c #1E89B5",
"I+	c #248EBA",
"J+	c #0972A1",
"K+	c #238EB9",
"L+	c #218CB7",
"M+	c #1784B1",
"N+	c #107FAE",
"O+	c #0D7CAB",
"P+	c #0A7AAA",
"Q+	c #0A79AA",
"R+	c #0D7BAB",
"S+	c #107EAD",
"T+	c #1683B0",
"U+	c #1D88B4",
"V+	c #238FB9",
"W+	c #238FBA",
"X+	c #228DB8",
"Y+	c #228DB9",
"Z+	c #218CB8",
"`+	c #208BB7",
" @	c #208BB6",
".@	c #0971A1",
"+@	c #238DB8",
"@@	c #0D73A2",
"#@	c #0C73A2",
"$@	c #3B8EB4",
"%@	c #1983B0",
"&@	c #2089B5",
"*@	c #1E88B4",
"=@	c #3A8DB4",
"-@	c #0B74A3",
";@	c #1781AF",
">@	c #1D87B4",
",@	c #1F88B5",
"'@	c #1E88B5",
")@	c #3F90B6",
"!@	c #1377A5",
"  . + @ # # # # # # # # # # # # # # # # # # # # # # # # @ + .   ",
"$ % & * = - - - - - - - - - - - - - - - - - - - - - - = * & ; > ",
", ' ) ! ~ ~ ~ ~ ~ ~ ~ ~ ~ ~ ~ ~ ~ ~ ~ ~ ~ ~ ~ ~ ~ ~ ~ ~ ! ) { ] ",
"^ / ( ( ( ( ( ( ( ( ( ( ( ( ( ( ( ( ( ( ( ( ( ( ( ( ( ( ( ( _ : ",
"# < [ [ [ [ [ [ [ [ [ [ [ [ [ [ [ [ [ [ [ [ [ [ [ [ [ [ [ [ < # ",
"# } | | | | | | | | | | | | | | | | | | | | | | | | | | | | } # ",
"# 1 2 2 2 2 2 2 2 2 2 2 2 2 2 2 2 2 2 3 3 2 2 2 2 2 2 2 2 2 1 # ",
"# 4 5 5 5 5 5 5 5 5 5 5 5 5 5 5 5 6 7 8 9 0 5 5 5 5 5 5 5 5 4 # ",
"a b c c c c d c c c c c c c c c c e f g h i j c c c c c c c b a ",
"a k l l l m n o p q r l l l l l s t u v w x y r l l l l l l k a ",
"a z A A A B C D E F G H I A A J K u L u u u M N O A A A A A z a ",
"a q { { { ' P Q R u S T U V W X Y u L u L u u Z ` { { { { { q a ",
" ...` ` ` +.@.#.$.u u R %.K &.*.u L u u u L L u =.-.;.>.,.'... .",
" .' ).).).).!.~.{.u L u u ].^./.u u u u u u L u (._.:.<.[.}.'  .",
" .|.1.1.1.1.2.3.4.u u L L u 5.L 6.u u u u u u u 7.8.9.0.a.b.|. .",
"c.d.2.2.2.2.e.f.g.h.i.u u L u u L u u u u u u L L j.k.l.m.n.d.c.",
"c.o.p.p.p.p.q.r.s.t.u.L u u u u u u u u u u u u 7.v.w.x.y.p.o.c.",
"c.z.r.r.r.r.r.A.B.C.D.E.u u u u u u u u u u L u v.F.G.H.I.r.z.c.",
"c.J.K.y.K.K.K.L.M.N.O.u u L u u u u u u u L u u O.P.Q.R.K.K.J.c.",
"c.f.S.T.U.V.W.W.W.H.X.Y.Z.u u u u u u u u L u `. +.+W.W.W.W.f.c.",
"c.++@+#+$+%+&+*+=+-+;+>+,+u u u u u u L L u '+)+!+@+@+@+@+@+Q.c.",
"c.~+{+]+^+/+(+_+:+<+[+u u L u u u u L u u }+|+1+2+3+3+3+3+3+~+c.",
"c.3+4+5+6+7+8+i.,+u u u L u u u L u u R 9+0+a+b+4+4+4+4+4+4+3+c.",
"c.c+d+e+f+g+h+i+j+u u u u u u u u k+l+m+n+o+p+d+d+d+d+d+d+d+c+c.",
"q+r+s+s+s+t+u+v+w+x+y+z+A+B+C+D+E+F+G+H+I+s+s+s+s+s+s+s+s+s+r+q+",
"J+s+K+K+K+K+K+L+g+M+N+O+P+Q+R+S+T+U+L+K+V+K+K+K+K+K+K+K+K+K+s+J+",
"J+W+X+X+X+X+X+X+Y+Z+`+ @u+u+`+`+L+X+Y+X+X+X+X+X+X+X+X+X+X+X+W+J+",
".@+@`+`+`+`+`+`+`+`+`+`+`+`+`+`+`+`+`+`+`+`+`+`+`+`+`+`+`+`++@.@",
"@@ @g+g+g+g+g+g+g+g+g+g+g+g+g+g+g+g+g+g+g+g+g+g+g+g+g+g+g+g+ @#@",
"$@%@&@*@*@*@*@*@*@*@*@*@*@*@*@*@*@*@*@*@*@*@*@*@*@*@*@*@*@&@%@=@",
"> -@;@>@,@'@'@'@'@'@'@'@'@'@'@'@'@'@'@'@'@'@'@'@'@'@'@,@>@;@-@> ",
"  . )@!@.@.@.@.@.@.@.@.@.@.@.@.@.@.@.@.@.@.@.@.@.@.@.@.@!@)@.   "};
